:FULLY-SPECIFIED
:FORCE-ALL-JOINTS-BE-3DOF
:DEGREES
408
root 4.57939 16.2155 -11.1822 1.33875 -38.9022 -1.15061
lfemur -28.5956 7.21684 -10.2971
ltibia 45.674 0 0
lfoot -12.0534 14.4371 0
ltoes 1.74946 0 0
rfemur -42.4355 -26.0976 26.3333
rtibia 87.6232 0 0
rfoot 4.62596 -3.41616 0
rtoes 38.6668 0 0
lowerback 5.7728 4.76633 -0.927184
upperback 1.73084 6.22601 -2.31025
thorax -1.27833 3.10274 -2.27115
lowerneck -6.22072 2.47158 7.40129
upperneck 3.71724 2.65565 0.144547
head 2.37489 1.43576 -1.12873
lclavicle -7.94145e-14 1.03368e-14 0
lhumerus -45.6615 -17.7051 94.2025
lradius 51.4418 0 0
lwrist 19.541 0 0
lhand -19.4515 2.6434 0
lfingers 7.12502 0 0
lthumb 6.86932 32.512 0
rclavicle -7.94145e-14 1.03368e-14 0
rhumerus -45.4498 10.1875 -91.5749
rradius 64.5087 0 0
rwrist 7.72207 0 0
rhand -19.1364 -17.4691 0
rfingers 7.12502 0 0
rthumb 7.17347 -47.328 0
409
root 4.52444 16.1977 -11.0788 1.39004 -38.7124 -1.29837
lfemur -28.5228 7.37174 -10.1131
ltibia 46.0797 -0 0
lfoot -12.4786 14.1099 0.01877
ltoes 1.59566 -0 0
rfemur -42.6239 -25.3597 25.7372
rtibia 86.2771 -0 0
rfoot 4.55782 -3.26703 -0.00136875
rtoes 37.7096 -0 0
lowerback 5.83128 4.68228 -0.772515
upperback 1.74537 6.12289 -2.2715
thorax -1.28998 3.05135 -2.31375
lowerneck -6.24011 2.58054 7.50152
upperneck 3.75443 2.79938 -0.0222402
head 2.4062 1.50491 -1.195
lclavicle 0 0 0
lhumerus -45.5702 -17.782 94.2441
lradius 51.2527 -0 0
lwrist 19.2393 0 0
lhand -19.5685 2.48604 0.00247954
lfingers 0 0 0
lthumb 6.75638 32.3578 0.00234563
rclavicle 0 0 0
rhumerus -45.4492 9.96563 -91.4202
rradius 64.728 -0 0
rwrist 7.94817 0 0
rhand -19.6415 -17.5426 0.00500655
rfingers 0 0 0
rthumb 6.68568 -47.4087 0.00530964
410
root 4.47034 16.1824 -10.9802 1.46216 -38.4403 -1.50891
lfemur -28.4177 7.59317 -9.84914
ltibia 46.6607 -0 0
lfoot -13.0877 13.6411 0.0414197
ltoes 1.3754 -0 0
rfemur -42.9065 -24.3061 24.8851
rtibia 84.3493 -0 0
rfoot 4.46023 -3.05345 -0.00302004
rtoes 36.3388 -0 0
lowerback 5.91463 4.56163 -0.551196
upperback 1.76606 5.97519 -2.21607
thorax -1.3066 2.97775 -2.37474
lowerneck -6.26754 2.73665 7.645
upperneck 3.80697 3.00541 -0.26097
head 2.45091 1.604 -1.28985
lclavicle 0 0 0
lhumerus -45.4394 -17.8922 94.3036
lradius 50.9819 -0 0
lwrist 18.8073 0 0
lhand -19.736 2.26069 0.00547095
lfingers 0 0 0
lthumb 6.59463 32.137 0.00517548
rclavicle 0 0 0
rhumerus -45.4494 9.6479 -91.1989
rradius 65.0421 -0 0
rwrist 8.27197 0 0
rhand -20.3649 -17.6479 0.0110478
rfingers 0 0 0
rthumb 5.98711 -47.5244 0.0117165
411
root 4.41801 16.1696 -10.8875 1.54835 -38.107 -1.76499
lfemur -28.2876 7.86357 -9.52526
ltibia 47.3719 -0 0
lfoot -13.8336 13.0669 0.0623582
ltoes 1.10577 -0 0
rfemur -43.2724 -23.0217 23.8436
rtibia 81.9894 -0 0
rfoot 4.34076 -2.792 -0.00454622
rtoes 34.6608 -0 0
lowerback 6.016 4.41351 -0.28056
upperback 1.79118 5.79436 -2.14831
thorax -1.32684 2.88762 -2.44936
lowerneck -6.30059 2.92784 7.82057
upperneck 3.87013 3.25791 -0.553015
head 2.50541 1.7254 -1.40586
lclavicle 0 0 0
lhumerus -45.2794 -18.0273 94.376
lradius 50.6503 -0 0
lwrist 18.2785 0 0
lhand -19.9411 1.98481 0.00823573
lfingers 0 0 0
lthumb 6.39662 31.8667 0.00779094
rclavicle 0 0 0
rhumerus -45.4514 9.25895 -90.9283
rradius 65.4265 -0 0
rwrist 8.66835 0 0
rhand -21.2505 -17.7769 0.0166325
rfingers 0 0 0
rthumb 5.13195 -47.666 0.0176392
412
root 4.36837 16.1589 -10.8016 1.64216 -37.7334 -2.04959
lfemur -28.14 8.16547 -9.16162
ltibia 48.1682 -0 0
lfoot -14.6689 12.4237 0.0769298
ltoes 0.803859 -0 0
rfemur -43.7079 -21.591 22.6782
rtibia 79.347 -0 0
rfoot 4.20698 -2.49924 -0.00560811
rtoes 32.7819 -0 0
lowerback 6.12865 4.24709 0.0220998
upperback 1.81904 5.59184 -2.07256
thorax -1.34936 2.78667 -2.53287
lowerneck -6.33691 3.14203 8.01706
upperneck 3.93934 3.54102 -0.879783
head 2.56615 1.86147 -1.53562
lclavicle 0 0 0
lhumerus -45.1003 -18.1787 94.4567
lradius 50.2791 -0 0
lwrist 17.6863 0 0
lhand -20.1708 1.67589 0.0101594
lfingers 0 0 0
lthumb 6.17488 31.564 0.00961076
rclavicle 0 0 0
rhumerus -45.4558 8.82346 -90.6256
rradius 65.857 -0 0
rwrist 9.11218 0 0
rhand -22.2421 -17.9214 0.0205189
rfingers 0 0 0
rthumb 4.1744 -47.8247 0.0217607
413
root 4.32235 16.1503 -10.7238 1.73767 -37.3406 -2.34615
lfemur -27.9827 8.48156 -8.77854
ltibia 49.0046 -0 0
lfoot -15.5464 11.748 0.0821353
ltoes 0.48676 -0 0
rfemur -44.1941 -20.0975 21.4535
rtibia 76.5717 -0 0
rfoot 4.06647 -2.19176 -0.00598741
rtoes 30.8084 -0 0
lowerback 6.24598 4.07167 0.339565
upperback 1.848 5.3791 -1.99312
thorax -1.37286 2.68061 -2.62054
lowerneck -6.37428 3.36714 8.22334
upperneck 4.01031 3.83879 -1.22273
head 2.62962 2.00453 -1.67177
lclavicle 0 0 0
lhumerus -44.9122 -18.3381 94.541
lradius 49.8892 -0 0
lwrist 17.0644 0 0
lhand -20.412 1.35142 0.0108466
lfingers 0 0 0
lthumb 5.94198 31.2461 0.0102608
rclavicle 0 0 0
rhumerus -45.4629 8.36608 -90.308
rradius 66.3092 -0 0
rwrist 9.57834 0 0
rhand -23.2836 -18.0732 0.0219073
rfingers 0 0 0
rthumb 3.16865 -47.9915 0.023233
